<svg xmlns="http://www.w3.org/2000/svg" xmlns:xlink="http://www.w3.org/1999/xlink" xmlns:sketch="http://www.bohemiancoding.com/sketch/ns" viewBox="0 0 100 125" version="1.1" x="0px" y="0px"><title>eye-fill 23</title><desc>Created with Sketch.</desc><g stroke="none" stroke-width="1" fill="none" fill-rule="evenodd" sketch:type="MSPage"><path d="M57.68875,48.51625 L39.61375,30.44125 C38.87875,29.71 37.69375,29.71 36.9625,30.44125 C36.2275,31.1725 36.2275,32.36125 36.9625,33.0925 L53.71,49.84375 L36.9625,66.59125 C36.2275,67.3225 36.2275,68.51125 36.9625,69.2425 C37.32625,69.61 37.80625,69.79 38.28625,69.79 C38.76625,69.79 39.24625,69.61 39.61375,69.2425 L57.68875,51.1675 C58.04125,50.815 58.23625,50.33875 58.23625,49.84375 C58.23625,49.345 58.04125,48.86875 57.68875,48.51625 M47.60875,49.84375 C47.60875,48.805 46.76875,47.96875 45.73375,47.96875 L26.875,47.96875 C25.84,47.96875 25,48.805 25,49.84375 C25,50.87875 25.84,51.71875 26.875,51.71875 L45.73375,51.71875 C46.76875,51.71875 47.60875,50.87875 47.60875,49.84375 M73.28125,25 L58.57375,25 C57.53875,25 56.69875,25.83625 56.69875,26.875 C56.69875,27.91 57.53875,28.75 58.57375,28.75 L58.6375,28.75 L71.40625,28.75 L71.40625,70.9375 L60.11125,70.9375 C60.0925,70.9375 60.07375,70.94875 60.05125,70.94875 C59.04625,70.9825 58.23625,71.79625 58.23625,72.8125 C58.23625,73.8475 59.07625,74.6875 60.11125,74.6875 L73.28125,74.6875 C74.32,74.6875 75.15625,73.8475 75.15625,72.8125 L75.15625,26.875 C75.15625,25.83625 74.32,25 73.28125,25" fill="#000000" sketch:type="MSShapeGroup"/></g></svg>